<mxfile host="65bd71144e">
    <diagram id="0hGiMTCpnBmBn-SUvB3x" name="Page-1">
        <mxGraphModel dx="984" dy="273" grid="1" gridSize="10" guides="1" tooltips="1" connect="1" arrows="1" fold="1" page="1" pageScale="1" pageWidth="850" pageHeight="1100" math="0" shadow="0">
            <root>
                <mxCell id="0"/>
                <mxCell id="1" parent="0"/>
                <mxCell id="2" value="buf" style="rounded=0;whiteSpace=wrap;html=1;" parent="1" vertex="1">
                    <mxGeometry x="210" y="150" width="120" height="60" as="geometry"/>
                </mxCell>
                <mxCell id="3" value="buf 起始位置" style="text;html=1;align=center;verticalAlign=middle;resizable=0;points=[];autosize=1;strokeColor=none;fillColor=none;" parent="1" vertex="1">
                    <mxGeometry x="100" y="140" width="90" height="30" as="geometry"/>
                </mxCell>
                <mxCell id="4" value="初始rsp = buf + 40" style="text;html=1;align=center;verticalAlign=middle;resizable=0;points=[];autosize=1;strokeColor=none;fillColor=none;" parent="1" vertex="1">
                    <mxGeometry x="80" y="190" width="120" height="30" as="geometry"/>
                </mxCell>
                <mxCell id="7" value="" style="edgeStyle=none;html=1;" parent="1" source="5" target="6" edge="1">
                    <mxGeometry relative="1" as="geometry"/>
                </mxCell>
                <mxCell id="5" value="&lt;span style=&quot;color: rgb(0, 148, 86); font-family: &amp;quot;JetBrains Mono&amp;quot;, &amp;quot;Fira Code Retina&amp;quot;, Consolas, &amp;quot;Courier New&amp;quot;, monospace, Consolas, &amp;quot;Courier New&amp;quot;, monospace; font-size: 16px; background-color: rgb(242, 241, 248);&quot;&gt;4019ab&lt;/span&gt;" style="rounded=0;whiteSpace=wrap;html=1;" parent="1" vertex="1">
                    <mxGeometry x="210" y="210" width="120" height="30" as="geometry"/>
                </mxCell>
                <mxCell id="6" value="popq %rax" style="rounded=0;whiteSpace=wrap;html=1;" parent="1" vertex="1">
                    <mxGeometry x="390" y="180" width="180" height="80" as="geometry"/>
                </mxCell>
                <mxCell id="8" value="ret" style="rounded=0;whiteSpace=wrap;html=1;" parent="1" vertex="1">
                    <mxGeometry x="570" y="180" width="60" height="80" as="geometry"/>
                </mxCell>
                <mxCell id="9" value="&lt;div style=&quot;color: rgb(12, 0, 107); background-color: rgb(242, 241, 248); font-family: &amp;quot;JetBrains Mono&amp;quot;, &amp;quot;Fira Code Retina&amp;quot;, Consolas, &amp;quot;Courier New&amp;quot;, monospace, Consolas, &amp;quot;Courier New&amp;quot;, monospace; font-size: 16px; line-height: 22px;&quot;&gt;&lt;span style=&quot;color: #009456;&quot;&gt;0x59b997fa&lt;/span&gt;&lt;/div&gt;" style="whiteSpace=wrap;html=1;rounded=0;" parent="1" vertex="1">
                    <mxGeometry x="210" y="240" width="120" height="30" as="geometry"/>
                </mxCell>
                <mxCell id="16" value="" style="edgeStyle=none;html=1;" parent="1" edge="1">
                    <mxGeometry relative="1" as="geometry">
                        <mxPoint x="570" y="305" as="sourcePoint"/>
                        <mxPoint x="570" y="305" as="targetPoint"/>
                    </mxGeometry>
                </mxCell>
                <mxCell id="15" value="0x4017ec" style="whiteSpace=wrap;html=1;rounded=0;" parent="1" vertex="1">
                    <mxGeometry x="210" y="300" width="120" height="30" as="geometry"/>
                </mxCell>
                <mxCell id="23" value="" style="edgeStyle=none;html=1;exitX=1;exitY=0.5;exitDx=0;exitDy=0;" edge="1" parent="1" source="25" target="22">
                    <mxGeometry relative="1" as="geometry">
                        <mxPoint x="330" y="292.1428571428571" as="sourcePoint"/>
                    </mxGeometry>
                </mxCell>
                <mxCell id="22" value="movq %rax, %rdi" style="whiteSpace=wrap;html=1;" vertex="1" parent="1">
                    <mxGeometry x="390" y="280" width="180" height="60" as="geometry"/>
                </mxCell>
                <mxCell id="24" value="ret" style="rounded=0;whiteSpace=wrap;html=1;" vertex="1" parent="1">
                    <mxGeometry x="570" y="280" width="60" height="60" as="geometry"/>
                </mxCell>
                <mxCell id="25" value="&lt;div style=&quot;color: rgb(12, 0, 107); background-color: rgb(242, 241, 248); font-family: &amp;quot;JetBrains Mono&amp;quot;, &amp;quot;Fira Code Retina&amp;quot;, Consolas, &amp;quot;Courier New&amp;quot;, monospace, Consolas, &amp;quot;Courier New&amp;quot;, monospace; font-size: 16px; line-height: 22px;&quot;&gt;&lt;div style=&quot;line-height: 22px;&quot;&gt;&lt;span style=&quot;color: #009456;&quot;&gt;4019a2&lt;/span&gt;&lt;/div&gt;&lt;/div&gt;" style="whiteSpace=wrap;html=1;rounded=0;" vertex="1" parent="1">
                    <mxGeometry x="210" y="270" width="120" height="30" as="geometry"/>
                </mxCell>
            </root>
        </mxGraphModel>
    </diagram>
</mxfile>